<svg width="176" height="236" viewBox="0 0 176 236" fill="none" xmlns="http://www.w3.org/2000/svg">
<g clip-path="url(#clip0_110_16151)">
<path d="M123.535 170.023H52.6688L21.501 137.082L3.7627 88.9367L16.9384 34.7091L57.9903 4.68445H118.214L159.265 34.7091L172.441 88.9367L154.703 137.082L123.535 170.023Z" stroke="white" stroke-width="0.725" stroke-miterlimit="10"/>
<path d="M52.1123 170.023L61.3681 196.49H114.16L123.414 170.023" stroke="white" stroke-width="0.725" stroke-miterlimit="10"/>
<path d="M114.162 199.618C115.889 199.618 117.289 198.218 117.289 196.49C117.289 194.763 115.889 193.363 114.162 193.363C112.435 193.363 111.035 194.763 111.035 196.49C111.035 198.218 112.435 199.618 114.162 199.618Z" fill="white"/>
<path d="M16.7432 34.6342L81.7346 40.468L116.199 4.14795L141.791 75.6039L159.58 34.6342L160.288 34.2161L57.8579 82.953L21.5016 137.082" stroke="white" stroke-width="0.725" stroke-miterlimit="10"/>
<path d="M4.36523 89.4417L74.7531 125.382L155.716 134.336L114.282 101.733L114.959 100.493L141.791 75.6039L59.4362 4.42822" stroke="white" stroke-width="0.725" stroke-miterlimit="10"/>
<path d="M59.4355 5.4408L81.7341 40.468L114.282 101.733L172.441 88.9366" stroke="white" stroke-width="0.725" stroke-miterlimit="10"/>
<path d="M155.716 134.336L141.791 75.6039" stroke="white" stroke-width="0.725" stroke-miterlimit="10"/>
<path d="M22.2188 136.011L73.6261 123.985L114.282 101.733" stroke="white" stroke-width="0.725" stroke-miterlimit="10"/>
<path d="M5.15234 89.4418L81.7341 40.468" stroke="white" stroke-width="0.725" stroke-miterlimit="10"/>
<path d="M19.1172 33.9358L57.8564 82.953L80.8944 39.1485" stroke="white" stroke-width="0.725" stroke-miterlimit="10"/>
<path d="M57.1559 83.9971L74.7516 125.382L54.5918 169.194" stroke="white" stroke-width="0.725" stroke-miterlimit="10"/>
<path d="M61.3691 196.49L74.7526 125.382L124.306 170.023" stroke="white" stroke-width="0.725" stroke-miterlimit="10"/>
<path d="M6.80543 90.1558C7.20216 88.4749 6.16113 86.7907 4.48023 86.3939C2.79932 85.9972 1.11507 87.0383 0.718341 88.7192C0.321612 90.4001 1.36264 92.0843 3.04354 92.481C4.72445 92.8778 6.4087 91.8367 6.80543 90.1558Z" fill="white"/>
<path d="M16.7414 37.7613C18.4685 37.7613 19.8686 36.3612 19.8686 34.6341C19.8686 32.907 18.4685 31.507 16.7414 31.507C15.0143 31.507 13.6143 32.907 13.6143 34.6341C13.6143 36.3612 15.0143 37.7613 16.7414 37.7613Z" fill="white"/>
<path d="M159.579 37.7613C161.306 37.7613 162.706 36.3612 162.706 34.6341C162.706 32.907 161.306 31.507 159.579 31.507C157.852 31.507 156.452 32.907 156.452 34.6341C156.452 36.3612 157.852 37.7613 159.579 37.7613Z" fill="white"/>
<path d="M120.348 6.89532C121.569 5.67409 121.569 3.69409 120.348 2.47285C119.126 1.25162 117.146 1.25161 115.925 2.47284C114.704 3.69408 114.704 5.67409 115.925 6.89532C117.146 8.11656 119.126 8.11656 120.348 6.89532Z" fill="white"/>
<path d="M60.0702 6.89361C61.2915 5.67238 61.2915 3.69237 60.0702 2.47113C58.849 1.2499 56.869 1.2499 55.6478 2.47113C54.4265 3.69237 54.4265 5.67238 55.6478 6.89361C56.869 8.11485 58.849 8.11485 60.0702 6.89361Z" fill="white"/>
<path d="M175.536 89.9498C175.813 88.245 174.655 86.6387 172.95 86.3619C171.245 86.0852 169.639 87.2429 169.362 88.9477C169.086 90.6524 170.243 92.2588 171.948 92.5355C173.653 92.8122 175.259 91.6545 175.536 89.9498Z" fill="white"/>
<path d="M22.5872 140.265C24.1829 139.604 24.9406 137.775 24.2797 136.179C23.6187 134.584 21.7894 133.826 20.1938 134.487C18.5982 135.148 17.8405 136.977 18.5014 138.573C19.1623 140.168 20.9916 140.926 22.5872 140.265Z" fill="white"/>
<path d="M158.023 138.085C158.42 136.404 157.379 134.72 155.698 134.323C154.017 133.926 152.333 134.967 151.936 136.648C151.539 138.329 152.58 140.013 154.261 140.41C155.942 140.807 157.626 139.766 158.023 138.085Z" fill="white"/>
<path d="M77.7918 124.697C78.1885 123.016 77.1475 121.332 75.4666 120.935C73.7857 120.539 72.1014 121.58 71.7047 123.261C71.3079 124.941 72.349 126.626 74.0299 127.022C75.7108 127.419 77.395 126.378 77.7918 124.697Z" fill="white"/>
<path d="M60.9783 83.6663C61.375 81.9854 60.334 80.3012 58.6531 79.9044C56.9722 79.5077 55.2879 80.5487 54.8912 82.2296C54.4945 83.9106 55.5355 85.5948 57.2164 85.9915C58.8973 86.3883 60.5816 85.3472 60.9783 83.6663Z" fill="white"/>
<path d="M83.9353 41.1807C84.332 39.4998 83.291 37.8156 81.6101 37.4189C79.9292 37.0221 78.245 38.0632 77.8482 39.7441C77.4515 41.425 78.4925 43.1092 80.1734 43.5059C81.8543 43.9027 83.5386 42.8616 83.9353 41.1807Z" fill="white"/>
<path d="M144.827 76.9427C145.224 75.2618 144.183 73.5775 142.502 73.1808C140.821 72.7841 139.137 73.8251 138.74 75.506C138.343 77.1869 139.384 78.8712 141.065 79.2679C142.746 79.6646 144.43 78.6236 144.827 76.9427Z" fill="white"/>
<path d="M117.32 102.445C117.717 100.764 116.676 99.08 114.995 98.6833C113.314 98.2865 111.63 99.3276 111.233 101.008C110.836 102.689 111.877 104.374 113.558 104.77C115.239 105.167 116.923 104.126 117.32 102.445Z" fill="white"/>
<path d="M54.8808 172.234C56.102 171.012 56.102 169.032 54.8808 167.811C53.6596 166.59 51.6795 166.59 50.4583 167.811C49.2371 169.032 49.2371 171.012 50.4583 172.234C51.6795 173.455 53.6596 173.455 54.8808 172.234Z" fill="white"/>
<path d="M126.631 170.534C126.907 168.829 125.75 167.223 124.045 166.946C122.34 166.669 120.734 167.827 120.457 169.532C120.18 171.236 121.338 172.843 123.043 173.119C124.748 173.396 126.354 172.239 126.631 170.534Z" fill="white"/>
<path d="M61.3694 199.618C63.0964 199.618 64.4965 198.218 64.4965 196.49C64.4965 194.763 63.0964 193.363 61.3694 193.363C59.6423 193.363 58.2422 194.763 58.2422 196.49C58.2422 198.218 59.6423 199.618 61.3694 199.618Z" fill="white"/>
<path d="M61.3694 217.975C63.0964 217.975 64.4965 216.574 64.4965 214.847C64.4965 213.12 63.0964 211.72 61.3694 211.72C59.6423 211.72 58.2422 213.12 58.2422 214.847C58.2422 216.574 59.6423 217.975 61.3694 217.975Z" fill="white"/>
<path d="M79.4243 231.025C81.9738 234.372 78.1893 238.156 74.8422 235.607C72.2927 232.26 76.0772 228.475 79.4243 231.025Z" fill="white"/>
<path d="M96.7807 231.025C94.2311 234.372 98.0156 238.156 101.363 235.607C103.912 232.26 100.128 228.475 96.7807 231.025Z" fill="white"/>
<path d="M114.162 217.975C115.889 217.975 117.289 216.574 117.289 214.847C117.289 213.12 115.889 211.72 114.162 211.72C112.435 211.72 111.035 213.12 111.035 214.847C111.035 216.574 112.435 217.975 114.162 217.975Z" fill="white"/>
</g>
<defs>
<clipPath id="clip0_110_16151">
<rect width="176" height="236" fill="white"/>
</clipPath>
</defs>
</svg>
