<svg xmlns="http://www.w3.org/2000/svg" width="57" height="57" viewBox="0 0 57 57" fill="none">
  <g clip-path="url(#clip0_1_21)">
    <path d="M56.9554 5.52855C55.8633 8.88861 54.1832 12.0809 52.755 15.2731C52.587 15.6931 51.915 15.6931 51.6629 15.4411C50.235 13.929 48.6389 12.417 47.7147 10.5688H47.6307C37.3821 9.8128 27.4696 18.5495 20.4132 24.9337C12.2647 32.2421 4.87228 41.1467 1.93211 51.8153C1.7641 53.1594 1.59609 54.5875 1.59609 56.0155C1.59609 56.6876 0.672038 56.6876 0.588034 56.0155C0.588034 55.7635 0.588034 55.5115 0.588034 55.2595C0.252014 55.2595 0 55.0075 0 54.5875C0.0840048 53.6634 0.336019 52.7394 0.504029 51.8153C1.17607 29.0499 23.8574 7.12464 46.0346 5.69656C45.2786 4.35247 44.6067 2.92453 43.7666 1.58031C43.3465 0.992416 44.0186 0.404381 44.6067 0.488384C48.8069 1.07628 52.5871 3.09254 56.4514 4.60449C56.7872 4.6885 57.1233 5.02452 56.9554 5.52855ZM45.6986 2.16835C46.2028 3.26041 46.5387 4.35247 47.1267 5.44454C47.2948 5.8647 47.0427 6.20058 46.7907 6.28459C46.7907 6.53661 46.6227 6.70475 46.3706 6.78862C26.2935 10.1488 9.99657 23.8416 3.94823 42.4069C7.89645 35.0984 13.9448 28.7141 19.9091 23.3377C24.2774 19.3894 28.8976 15.8613 33.9379 12.9211C37.8862 10.653 42.8424 8.55286 47.3787 9.98081C47.1267 9.30877 48.1347 8.97275 48.4708 9.47678C49.5628 10.9049 50.6549 12.2489 51.831 13.509C53.0069 10.9049 54.2671 8.30085 55.191 5.61269C52.083 4.43648 48.9748 2.92439 45.6986 2.16835Z" fill="#279FAC"/>
  </g>
  <defs>
    <clipPath id="clip0_1_21">
      <rect width="57" height="57" fill="white" transform="matrix(1 0 0 -1 0 57)"/>
    </clipPath>
  </defs>
</svg>