<svg xmlns="http://www.w3.org/2000/svg" width="57" height="57" viewBox="0 0 57 57" fill="none">
  <g clip-path="url(#clip0_56_26637)">
    <path d="M56.9554 5.52856C55.8633 8.88862 54.1832 12.081 52.755 15.2731C52.587 15.6932 51.915 15.6932 51.6629 15.4412C50.235 13.9291 48.6389 12.417 47.7147 10.5689H47.6307C37.3821 9.81282 27.4696 18.5495 20.4132 24.9337C12.2647 32.2421 4.87228 41.1467 1.93211 51.8153C1.7641 53.1594 1.59609 54.5875 1.59609 56.0156C1.59609 56.6876 0.672038 56.6876 0.588034 56.0156C0.588034 55.7635 0.588034 55.5115 0.588034 55.2595C0.252014 55.2595 0 55.0075 0 54.5875C0.0840048 53.6634 0.336019 52.7394 0.504029 51.8153C1.17607 29.05 23.8574 7.12466 46.0346 5.69657C45.2786 4.35249 44.6067 2.92455 43.7666 1.58033C43.3465 0.992432 44.0186 0.404396 44.6067 0.4884C48.8069 1.0763 52.5871 3.09255 56.4514 4.60451C56.7872 4.68851 57.1233 5.02453 56.9554 5.52856ZM45.6986 2.16837C46.2028 3.26043 46.5387 4.35249 47.1267 5.44456C47.2948 5.86472 47.0427 6.2006 46.7907 6.2846C46.7907 6.53662 46.6227 6.70477 46.3706 6.78864C26.2935 10.1488 9.99657 23.8416 3.94823 42.4069C7.89645 35.0985 13.9448 28.7141 19.9091 23.3378C24.2774 19.3894 28.8976 15.8613 33.9379 12.9211C37.8862 10.653 42.8424 8.55288 47.3787 9.98083C47.1267 9.30878 48.1347 8.97277 48.4708 9.4768C49.5628 10.9049 50.6549 12.249 51.831 13.509C53.0069 10.9049 54.2671 8.30087 55.191 5.61271C52.083 4.4365 48.9748 2.92441 45.6986 2.16837Z" fill="url(#paint0_linear_56_26637)"/>
  </g>
  <defs>
    <linearGradient id="paint0_linear_56_26637" x1="16.9904" y1="56.5196" x2="56.6207" y2="15.2651" gradientUnits="userSpaceOnUse">
      <stop stop-color="#FF9898"/>
      <stop offset="1" stop-color="#8054FF"/>
    </linearGradient>
    <clipPath id="clip0_56_26637">
      <rect width="57" height="57" fill="white" transform="matrix(1 0 0 -1 0 57)"/>
    </clipPath>
  </defs>
</svg>