<svg xmlns="http://www.w3.org/2000/svg" width="105" height="104" viewBox="0 0 105 104" fill="none">
  <rect x="0.5" width="104" height="104" rx="30" fill="#06071B"/>
  <path d="M47.3008 64.1289C38.0368 64.1289 30.5 56.2495 30.5 46.5645C30.5 36.8794 38.0368 29 47.3008 29C56.5648 29 64.1016 36.8794 64.1016 46.5645C64.1016 56.2495 56.5648 64.1289 47.3008 64.1289ZM47.3008 32.5937C39.9323 32.5937 33.9375 38.8609 33.9375 46.5645C33.9375 54.268 39.9322 60.5352 47.3008 60.5352C54.6694 60.5352 60.6641 54.268 60.6641 46.5645C60.6641 38.8609 54.6693 32.5937 47.3008 32.5937ZM74.5 64.2188V53.9766C74.5 50.3421 72.7656 46.9759 69.8605 44.9721C69.0684 44.4257 68.0021 44.6541 67.4794 45.4825C66.9566 46.3109 67.1753 47.4254 67.9676 47.9719C69.9055 49.3086 71.0625 51.5532 71.0625 53.9767V64.2189C71.0625 68.1821 67.9784 71.4063 64.1875 71.4063H54.3906C52.1394 71.4063 50.0271 70.2505 48.7402 68.3146C48.1985 67.4996 47.1273 67.2982 46.348 67.8644C45.5684 68.4307 45.3758 69.5505 45.9173 70.3653C47.8465 73.2675 51.0141 75.0001 54.3907 75.0001H64.1876C69.8738 75 74.5 70.1635 74.5 64.2188Z" fill="white"/>
</svg>