<svg width="45" height="46" viewBox="0 0 45 46" fill="none" xmlns="http://www.w3.org/2000/svg">
<path d="M17.3008 35.1289C8.03679 35.1289 0.5 27.2495 0.5 17.5645C0.5 7.87937 8.03679 0 17.3008 0C26.5648 0 34.1016 7.87937 34.1016 17.5645C34.1016 27.2495 26.5648 35.1289 17.3008 35.1289ZM17.3008 3.59374C9.93228 3.59374 3.93749 9.86093 3.93749 17.5645C3.93749 25.268 9.9322 31.5352 17.3008 31.5352C24.6694 31.5352 30.6641 25.268 30.6641 17.5645C30.6641 9.86093 24.6693 3.59374 17.3008 3.59374ZM44.5 35.2188V24.9766C44.5 21.3421 42.7656 17.9759 39.8605 15.9721C39.0684 15.4257 38.0021 15.6541 37.4794 16.4825C36.9566 17.3109 37.1753 18.4254 37.9676 18.9719C39.9055 20.3086 41.0625 22.5532 41.0625 24.9767V35.2189C41.0625 39.1821 37.9784 42.4063 34.1875 42.4063H24.3906C22.1394 42.4063 20.0271 41.2505 18.7402 39.3146C18.1985 38.4996 17.1273 38.2982 16.348 38.8644C15.5684 39.4307 15.3758 40.5505 15.9173 41.3653C17.8465 44.2675 21.0141 46.0001 24.3907 46.0001H34.1876C39.8738 46 44.5 41.1635 44.5 35.2188Z" fill="white"/>
</svg>
