<svg width="80" height="80" viewBox="0 0 80 80" fill="none" xmlns="http://www.w3.org/2000/svg">
<rect width="80" height="80" rx="40" fill="#279FAC"/>
<g clip-path="url(#clip0_1_93)">
<mask id="mask0_1_93" style="mask-type:luminance" maskUnits="userSpaceOnUse" x="16" y="16" width="48" height="48">
<path d="M16 16H64V64H16V16Z" fill="white"/>
</mask>
<g mask="url(#mask0_1_93)">
<path d="M40 42.1082C38.8376 42.1082 37.8918 41.1624 37.8918 40C37.8918 38.8375 38.8376 37.8918 40 37.8918C41.1624 37.8918 42.1082 38.8375 42.1082 40C42.1082 41.1624 41.1624 42.1082 40 42.1082ZM40 35.0793C37.2868 35.0793 35.0793 37.2867 35.0793 40C35.0793 42.7132 37.2868 44.9207 40 44.9207C42.7132 44.9207 44.9207 42.7132 44.9207 40C44.9207 37.2867 42.7132 35.0793 40 35.0793Z" fill="white"/>
<path d="M58.3488 50.5938C57.3235 52.3698 54.4448 53.1423 50.4502 52.7136C50.2221 52.6892 49.9914 52.6601 49.7593 52.6283C50.3161 50.6825 50.7389 48.5739 51.0165 46.3605C52.7946 45.0134 54.4093 43.593 55.816 42.1378C55.9595 42.3228 56.1 42.5081 56.2353 42.6934C58.6038 45.9383 59.3742 48.8178 58.3488 50.5938ZM45.785 55.4071C44.1591 59.0806 42.0505 61.1875 39.9999 61.1875C37.9493 61.1875 35.8407 59.0806 34.2148 55.4071C34.1218 55.1973 34.0318 54.9829 33.9432 54.766C35.9068 54.2754 37.9442 53.5873 39.9999 52.7209C42.0555 53.5873 44.093 54.2754 46.0566 54.766C45.968 54.9829 45.8779 55.1973 45.785 55.4071ZM29.5496 52.7136C25.5551 53.1423 22.6763 52.3696 21.6509 50.5938C20.6257 48.8178 21.3959 45.9383 23.7644 42.6934C23.8996 42.5081 24.0402 42.3228 24.1838 42.1377C25.5904 43.593 27.2052 45.0134 28.9833 46.3605C29.2608 48.5739 29.6836 50.6825 30.2405 52.6283C30.0084 52.6601 29.7777 52.6892 29.5496 52.7136ZM23.7644 37.3067C21.3959 34.0617 20.6257 31.1822 21.6509 29.4063C22.4906 27.952 24.5729 27.1705 27.4933 27.1705C28.1391 27.1705 28.8262 27.2088 29.5496 27.2864C29.7777 27.3108 30.0084 27.3399 30.2405 27.3717C29.6836 29.3176 29.2608 31.4261 28.9833 33.6395C27.2052 34.9866 25.5904 36.407 24.1838 37.8623C24.0403 37.6772 23.8997 37.4919 23.7644 37.3067ZM34.2148 24.5929C35.8407 20.9194 37.9493 18.8125 39.9999 18.8125C42.0505 18.8125 44.1591 20.9194 45.785 24.5929C45.8779 24.8028 45.9681 25.0171 46.0566 25.234C44.093 25.7246 42.0555 26.4127 39.9999 27.2792C37.9442 26.4127 35.9068 25.7246 33.9432 25.234C34.0318 25.0171 34.1218 24.8028 34.2148 24.5929ZM51.3475 37.5145C52.2937 38.3272 53.1728 39.1585 53.9726 40C53.1728 40.8416 52.2937 41.6728 51.3475 42.4855C51.386 41.665 51.4062 40.8359 51.4062 40C51.4062 39.1642 51.386 38.335 51.3475 37.5145ZM43.5211 28.93C44.6981 28.5168 45.8575 28.1712 46.9862 27.8993C47.3151 29.0128 47.5955 30.1896 47.8262 31.4155C47.1348 30.9719 46.4268 30.5398 45.703 30.1219C44.9791 29.704 44.251 29.3069 43.5211 28.93ZM32.1735 31.4155C32.4043 30.1896 32.6847 29.0128 33.0135 27.8993C34.1423 28.1712 35.3017 28.5168 36.4786 28.93C35.7488 29.3069 35.0206 29.704 34.2968 30.1219C33.5729 30.5398 32.8649 30.9719 32.1735 31.4155ZM28.6523 42.4856C27.7061 41.6728 26.827 40.8416 26.0272 40C26.827 39.1585 27.7061 38.3272 28.6523 37.5145C28.6138 38.335 28.5936 39.1642 28.5936 40C28.5936 40.8359 28.6138 41.665 28.6523 42.4856ZM36.4786 51.0701C35.3017 51.4833 34.1423 51.8288 33.0135 52.1008C32.6847 50.9873 32.4043 49.8104 32.1735 48.5845C32.8649 49.0282 33.5729 49.4602 34.2968 49.8782C35.0206 50.296 35.7488 50.6932 36.4786 51.0701ZM47.8262 48.5845C47.5955 49.8104 47.3151 50.9873 46.9862 52.1008C45.8575 51.8288 44.6981 51.4832 43.5211 51.0701C44.251 50.6932 44.9792 50.296 45.703 49.8782C46.4268 49.4602 47.1348 49.0282 47.8262 48.5845ZM44.2967 47.4424C42.8713 48.2655 41.4318 49.0051 39.9999 49.6538C38.5679 49.0051 37.1285 48.2655 35.703 47.4424C34.2776 46.6195 32.9173 45.7427 31.6395 44.8269C31.4853 43.2624 31.4061 41.646 31.4061 40C31.4061 38.354 31.4853 36.7376 31.6395 35.1732C32.9173 34.2574 34.2776 33.3806 35.703 32.5576C37.1285 31.7346 38.5679 30.9949 39.9999 30.3463C41.4318 30.9949 42.8713 31.7346 44.2967 32.5576C45.7222 33.3806 47.0825 34.2574 48.3603 35.1732C48.5144 36.7376 48.5937 38.354 48.5937 40C48.5937 41.646 48.5144 43.2624 48.3603 44.8269C47.0825 45.7427 45.7222 46.6194 44.2967 47.4424ZM50.4502 27.2864C51.1738 27.2088 51.8606 27.1705 52.5065 27.1705C55.4265 27.1705 57.5092 27.9521 58.3488 29.4063C59.3742 31.1822 58.6038 34.0617 56.2353 37.3067C56.1 37.4919 55.9595 37.6772 55.816 37.8623C54.4093 36.407 52.7946 34.9866 51.0165 33.6395C50.7389 31.4261 50.3162 29.3176 49.7593 27.3717C49.9914 27.3399 50.2221 27.3108 50.4502 27.2864ZM57.7108 40C57.9887 39.6557 58.2548 39.3104 58.5071 38.9647C61.6064 34.7185 62.4152 30.8245 60.7844 28C59.1538 25.1755 55.3768 23.9287 50.1501 24.49C49.7246 24.5357 49.2926 24.5934 48.8554 24.6618C48.696 24.249 48.5301 23.8459 48.3568 23.4546C46.2292 18.6474 43.2613 16 39.9999 16C36.7385 16 33.7706 18.6474 31.6429 23.4546C31.4697 23.8459 31.3037 24.249 31.1443 24.6618C30.7072 24.5934 30.2752 24.5357 29.8497 24.49C24.6229 23.929 20.8459 25.1755 19.2153 28C17.5845 30.8245 18.3934 34.7185 21.4927 38.9647C21.745 39.3104 22.011 39.6557 22.2889 40C22.011 40.3444 21.745 40.6896 21.4927 41.0353C18.3934 45.2815 17.5845 49.1756 19.2153 52C20.5905 54.3819 23.4911 55.6415 27.5014 55.6415C28.2465 55.6415 29.0308 55.5979 29.8497 55.5101C30.2752 55.4644 30.7072 55.4066 31.1443 55.3383C31.3037 55.751 31.4697 56.1541 31.6429 56.5454C33.7706 61.3526 36.7385 64 39.9999 64C43.2613 64 46.2292 61.3526 48.3568 56.5454C48.5301 56.1541 48.696 55.751 48.8554 55.3382C49.2926 55.4066 49.7246 55.4644 50.1501 55.5101C50.9694 55.5979 51.753 55.6415 52.4983 55.6415C56.5083 55.6415 59.4094 54.3818 60.7844 52C62.4152 49.1756 61.6064 45.2815 58.5071 41.0353C58.2548 40.6896 57.9887 40.3444 57.7108 40Z" fill="white"/>
</g>
</g>
<defs>
<clipPath id="clip0_1_93">
<rect width="48" height="48" fill="white" transform="translate(16 16)"/>
</clipPath>
</defs>
</svg>
