<svg xmlns="http://www.w3.org/2000/svg" width="40" height="40" viewBox="0 0 40 40" fill="none">
  <path d="M34.6201 39.9967C33.3752 39.9968 32.1688 39.5635 31.2065 38.7706C30.2442 37.9776 29.5854 36.8741 29.3426 35.6482C29.0998 34.4222 29.2879 33.1496 29.8748 32.0473C30.4617 30.945 31.4112 30.0811 32.5614 29.6029C33.7116 29.1248 34.9913 29.0619 36.1825 29.425C37.3737 29.7881 38.4027 30.5547 39.094 31.5942C39.7854 32.6337 40.0963 33.8817 39.9739 35.1256C39.8515 36.3696 39.3033 37.5324 38.4227 38.4159C37.9237 38.9178 37.331 39.3158 36.6784 39.5871C36.0259 39.8584 35.3264 39.9976 34.6201 39.9967Z" fill="white"/>
  <path d="M5.38087 11.1841C4.13598 11.1842 2.92957 10.7509 1.96724 9.95794C1.0049 9.165 0.346192 8.06152 0.103361 6.83555C-0.13947 5.60959 0.0486087 4.33702 0.63554 3.23469C1.22247 2.13236 2.17193 1.2685 3.32213 0.790327C4.47232 0.312152 5.75207 0.249245 6.94328 0.61234C8.13448 0.975436 9.16343 1.74206 9.85478 2.78156C10.5461 3.82106 10.8571 5.06912 10.7347 6.31303C10.6122 7.55695 10.064 8.71975 9.1834 9.60327C8.68538 10.1064 8.09279 10.5052 7.44004 10.7766C6.78728 11.048 6.08736 11.1865 5.38087 11.1841Z" fill="white"/>
  <path d="M34.3769 11.0262C33.1321 11.0247 31.9264 10.5899 30.9651 9.79578C30.0038 9.00171 29.3464 7.89752 29.1051 6.67135C28.8637 5.44519 29.0532 4.17291 29.6413 3.07133C30.2295 1.96975 31.1798 1.10701 32.3304 0.630124C33.4811 0.153236 34.7608 0.0917038 35.9516 0.456017C37.1423 0.82033 38.1704 1.58795 38.8607 2.62807C39.5509 3.66818 39.8607 4.91645 39.7371 6.16016C39.6135 7.40387 39.0642 8.56607 38.1829 9.44874C37.6838 9.95121 37.0905 10.3493 36.4372 10.6201C35.784 10.8909 35.0837 11.0289 34.3769 11.0262Z" fill="white"/>
  <path d="M5.52099 39.9965C4.45643 39.9971 3.41563 39.6806 2.53029 39.087C1.64496 38.4934 0.954889 37.6495 0.54742 36.662C0.139951 35.6744 0.0333944 34.5877 0.24124 33.5394C0.449085 32.4911 0.961988 31.5282 1.71504 30.7727C1.94676 30.5411 2.20135 30.3338 2.47486 30.1541C2.55954 30.0931 2.64752 30.0369 2.7384 29.9857C2.93692 29.8688 3.13543 29.7657 3.32025 29.6798C3.42293 29.6351 3.52561 29.587 3.63513 29.5458C3.8463 29.4646 4.06235 29.3969 4.28201 29.343L4.41891 29.3052L4.50447 29.2812L5.70239 29.2021C5.85299 29.2021 6.01386 29.2262 6.18841 29.2502H6.25686H6.40746H6.45537H6.51013H6.55805H6.82159C8.92702 29.2204 10.9346 28.3527 12.4035 26.8379C13.8724 25.3231 14.6825 23.2848 14.656 21.1707V21.1089V21.047C14.6526 20.9887 14.6526 20.9301 14.656 20.8718C14.656 20.803 14.656 20.7343 14.6354 20.6656V20.5419C14.6354 20.4388 14.6149 20.3391 14.6081 20.236L14.697 19.0263C14.7046 18.9972 14.7138 18.9685 14.7244 18.9404L14.745 18.8648C14.7957 18.6311 14.8632 18.4014 14.9469 18.1775C14.9839 18.0707 15.0273 17.9662 15.077 17.8647C15.1698 17.6587 15.2738 17.458 15.3884 17.2633C15.4398 17.1808 15.4911 17.0949 15.5493 17.009C15.7315 16.7347 15.9389 16.4781 16.1688 16.2426C16.6644 15.7222 17.2586 15.3064 17.9164 15.0197C18.5743 14.733 19.2826 14.5812 19.9997 14.5731C20.7168 14.565 21.4283 14.7009 22.0924 14.9727C22.7565 15.2446 23.3598 15.6469 23.8669 16.1561C24.374 16.6653 24.7747 17.271 25.0454 17.9378C25.3162 18.6046 25.4515 19.319 25.4434 20.0391C25.4354 20.7591 25.2842 21.4703 24.9987 22.1309C24.7131 22.7914 24.299 23.388 23.7807 23.8857C23.5472 24.1152 23.2928 24.3223 23.0209 24.5043C22.9319 24.5661 22.8463 24.6177 22.7607 24.6658C22.573 24.7802 22.3787 24.8835 22.1789 24.9751C22.0728 25.0232 21.9667 25.0713 21.8674 25.1091C21.6535 25.1871 21.4352 25.2525 21.2137 25.305L21.0837 25.3394L20.9981 25.3634L19.7865 25.4493C19.6364 25.4421 19.4867 25.4272 19.3381 25.4047H19.232H19.0814H18.9993H18.9377H18.6262C17.5817 25.4177 16.55 25.6375 15.5902 26.0515C14.6304 26.4655 13.7614 27.0656 13.033 27.8175C12.3046 28.5693 11.7311 29.458 11.3453 30.4328C10.9596 31.4075 10.7692 32.4491 10.785 33.4979V33.5563V33.6182C10.7941 33.6762 10.7998 33.7347 10.8021 33.7934C10.8021 33.8622 10.8021 33.9309 10.8226 33.9996C10.826 34.063 10.8329 34.1261 10.8432 34.1886C10.8432 34.2711 10.8432 34.3536 10.8432 34.4361V34.4636L10.7576 35.6217C10.7576 35.6458 10.7131 35.7798 10.7028 35.821C10.6512 36.0485 10.5849 36.2723 10.5043 36.4912C10.4684 36.5945 10.4261 36.6955 10.3777 36.7936C10.2819 36.9998 10.1826 37.1957 10.0662 37.3984C10.0149 37.4775 9.95671 37.5737 9.89511 37.6665C9.71283 37.9346 9.50786 38.1864 9.28246 38.4191C8.78409 38.9218 8.19144 39.3203 7.53876 39.5917C6.88609 39.863 6.18633 40.0018 5.47992 40L5.52099 39.9965Z" fill="url(#paint0_radial_56_30121)"/>
  <path d="M20.057 39.9967C18.9039 40.0089 17.7777 39.6474 16.8455 38.9659C15.9133 38.2843 15.2249 37.3191 14.8824 36.2135C14.54 35.1079 14.5618 33.9208 14.9446 32.8287C15.3274 31.7365 16.0508 30.7974 17.0074 30.1508C17.0896 30.0958 17.1751 30.0443 17.2641 29.9927C17.4534 29.8779 17.6488 29.7735 17.8494 29.68L18.1608 29.546C18.3735 29.4694 18.5906 29.4063 18.8111 29.357L19.0233 29.2951L20.2418 29.2058C20.3855 29.2058 20.5396 29.2332 20.7004 29.2539H20.7928H20.9503H21.0119H21.0495H21.3678C23.4715 29.2231 25.4769 28.3553 26.9439 26.8411C28.4108 25.3269 29.2194 23.2901 29.192 21.1778V20.927L29.1714 20.8995C29.1699 20.8904 29.1699 20.8811 29.1714 20.872V20.6933L29.1509 20.5214C29.1509 20.4252 29.1269 20.3324 29.1235 20.2362L29.2056 19.0677C29.2056 19.0368 29.2536 18.8925 29.2638 18.8478C29.3166 18.6229 29.3829 18.4014 29.4623 18.1845C29.5012 18.078 29.5458 17.9736 29.5958 17.8718C29.6878 17.6693 29.7907 17.472 29.9039 17.2807L29.9278 17.2395C29.9689 17.1707 30.01 17.0986 30.0579 17.0298C30.2425 16.7553 30.451 16.4977 30.6808 16.26C31.691 15.2466 33.0605 14.6774 34.4885 14.6774C35.9164 14.6774 37.286 15.2466 38.2961 16.26C39.3021 17.2761 39.8667 18.6506 39.8667 20.0833C39.8667 21.516 39.3021 22.8904 38.2961 23.9065C38.0597 24.1341 37.8044 24.3411 37.5329 24.5251L37.3549 24.6351L37.2591 24.6969C37.0767 24.8063 36.8881 24.905 36.6943 24.9925C36.5848 25.0406 36.4856 25.0887 36.376 25.1299C36.1611 25.2074 35.9416 25.2717 35.7189 25.3224L35.582 25.3602L35.4964 25.3842L34.3019 25.4667C34.1274 25.4667 33.9357 25.4358 33.7543 25.4117C33.7019 25.4091 33.6493 25.4091 33.5969 25.4117H33.5421H33.4394H33.1725C32.1303 25.4261 31.1011 25.6465 30.1438 26.0603C29.1865 26.4742 28.3198 27.0734 27.5932 27.8237C26.8666 28.574 26.2943 29.4607 25.9091 30.4332C25.524 31.4056 25.3334 32.4448 25.3483 33.4912V33.5531V33.6115C25.3574 33.673 25.3632 33.7349 25.3655 33.7971C25.3655 33.8589 25.3655 33.9208 25.3826 33.9827C25.3997 34.0445 25.3826 34.0995 25.3997 34.1614C25.4168 34.2232 25.4202 34.3469 25.4236 34.4363L25.3347 35.6254L25.2833 35.8109C25.2315 36.044 25.1652 36.2736 25.0848 36.4983C25.0506 36.5945 25.0061 36.6907 24.965 36.7869L24.9479 36.8213C24.8584 37.017 24.7578 37.2075 24.6467 37.3918C24.5919 37.4834 24.5372 37.5728 24.4824 37.6598C24.2979 37.9334 24.0894 38.1899 23.8595 38.4262C23.3607 38.9276 22.7678 39.3247 22.1151 39.5943C21.4623 39.8638 20.7628 40.0007 20.057 39.9967Z" fill="url(#paint1_radial_56_30121)"/>
  <path d="M5.52442 25.4083C4.45998 25.4096 3.41909 25.0938 2.53344 24.5009C1.64778 23.908 0.957179 23.0647 0.549001 22.0776C0.140824 21.0905 0.0334148 20.004 0.240367 18.9556C0.447319 17.9072 0.959333 16.944 1.71162 16.1879C1.94583 15.9567 2.20139 15.7484 2.47486 15.5659L2.74183 15.3975C2.92665 15.2875 3.11832 15.1878 3.32025 15.0916C3.42293 15.0435 3.52561 14.9988 3.63513 14.9576C3.84658 14.881 4.06264 14.8178 4.28201 14.7686L4.41549 14.7308L4.49079 14.7067L5.70924 14.6208C5.86668 14.6208 6.05151 14.6483 6.21922 14.6723H6.25687H6.4143H6.46907H6.5204H6.56832H6.83871C7.8806 14.6575 8.90939 14.4368 9.86631 14.0228C10.8232 13.6087 11.6896 13.0094 12.4158 12.2592C13.142 11.5089 13.714 10.6223 14.0989 9.65009C14.4839 8.67786 14.6743 7.639 14.6594 6.59285V6.53443V6.47601C14.6475 6.41019 14.6406 6.34356 14.6389 6.27669V6.11173L14.6183 5.94334C14.6041 5.84421 14.595 5.74442 14.591 5.64435L14.6731 4.51026V4.48277V4.45872L14.7244 4.28344C14.776 4.05033 14.8423 3.82076 14.9229 3.59612C14.9606 3.49302 15.0085 3.38993 15.0564 3.2834C15.1477 3.08058 15.2505 2.88321 15.3645 2.6923V2.66136C15.4124 2.58576 15.4569 2.50672 15.5116 2.42767C15.6914 2.15661 15.8965 1.90344 16.1243 1.67163C16.6197 1.15095 17.2137 0.734894 17.8714 0.447898C18.5291 0.160903 19.2374 0.00875254 19.9545 0.000366627C20.6716 -0.00801929 21.3831 0.127531 22.0473 0.399068C22.7115 0.670604 23.315 1.07265 23.8224 1.5816C24.3297 2.09055 24.7306 2.69614 25.0017 3.36282C25.2727 4.02951 25.4083 4.74385 25.4006 5.46389C25.3929 6.18393 25.242 6.89517 24.9568 7.55585C24.6716 8.21653 24.2577 8.81333 23.7396 9.31121C23.5069 9.54157 23.2524 9.74874 22.9798 9.92981C22.8977 9.98823 22.8258 10.0295 22.7539 10.0741L22.7128 10.0982C22.5143 10.215 22.3227 10.3181 22.1378 10.4041C22.0283 10.4522 21.9291 10.5003 21.823 10.5381C21.6081 10.6169 21.3887 10.6823 21.1658 10.734C21.1184 10.7441 21.0716 10.7567 21.0255 10.7718L20.9399 10.7958L19.7454 10.8783C19.5948 10.8783 19.434 10.8508 19.2663 10.8302H19.191H19.0369H18.9753H18.9377H18.616C17.5732 10.8436 16.5433 11.0634 15.5852 11.4768C14.6271 11.8903 13.7596 12.4894 13.0322 13.2398C12.3049 13.9902 11.7321 14.8772 11.3465 15.8501C10.9609 16.823 10.7701 17.8627 10.785 18.9097V18.9681V19.0265C10.7969 19.0877 10.8038 19.1498 10.8055 19.2121C10.8055 19.274 10.8055 19.3393 10.8055 19.4011C10.8055 19.463 10.8055 19.5145 10.8261 19.5798C10.838 19.6687 10.8449 19.7582 10.8466 19.8479L10.785 21.0266C10.785 21.0576 10.785 21.0885 10.761 21.1194L10.7302 21.226C10.6791 21.4588 10.614 21.6884 10.5351 21.9133C10.4975 22.0164 10.4462 22.1195 10.3982 22.2294C10.3091 22.4292 10.2097 22.6242 10.1005 22.8137C10.0457 22.9065 9.99095 22.9958 9.93619 23.0783C9.75577 23.3529 9.54822 23.6085 9.31669 23.8412C8.81907 24.344 8.22704 24.7425 7.5749 25.0139C6.92277 25.2853 6.22349 25.424 5.51758 25.4221L5.52442 25.4083Z" fill="url(#paint2_radial_56_30121)"/>
  <defs>
    <radialGradient id="paint0_radial_56_30121" cx="0" cy="0" r="1" gradientUnits="userSpaceOnUse" gradientTransform="translate(12.7907 45.951) rotate(-84.0264) scale(31.5496 34.9393)">
      <stop offset="0.156976" stop-color="#9E00D1"/>
      <stop offset="1" stop-color="#4D31FE"/>
    </radialGradient>
    <radialGradient id="paint1_radial_56_30121" cx="0" cy="0" r="1" gradientUnits="userSpaceOnUse" gradientTransform="translate(27.2537 45.9229) rotate(-84.02) scale(31.4165 34.8284)">
      <stop offset="0.156976" stop-color="#9E00D1"/>
      <stop offset="1" stop-color="#4D31FE"/>
    </radialGradient>
    <radialGradient id="paint2_radial_56_30121" cx="0" cy="0" r="1" gradientUnits="userSpaceOnUse" gradientTransform="translate(12.7693 31.3719) rotate(-84.0352) scale(31.5427 34.8807)">
      <stop offset="0.156976" stop-color="#9E00D1"/>
      <stop offset="1" stop-color="#4D31FE"/>
    </radialGradient>
  </defs>
</svg>