<svg xmlns="http://www.w3.org/2000/svg" width="24" height="24" viewBox="0 0 24 24" fill="none">
  <path fill-rule="evenodd" clip-rule="evenodd" d="M21.6975 15.8335C21.6975 17.8601 20.0489 19.5062 18.0248 19.5062H5.97525C3.95114 19.5062 2.3025 17.8601 2.3025 15.8335V8.16649C2.3025 7.49008 2.4877 6.85479 2.80917 6.30954L8.68861 12.189C9.56822 13.0712 10.7461 13.5573 12.0013 13.5573C13.2538 13.5573 14.4317 13.0712 15.3113 12.189L21.1908 6.30954C21.5123 6.85479 21.6975 7.49004 21.6975 8.16649V15.8335H21.6975ZM18.0248 4.49378H5.97525C5.13938 4.49378 4.36777 4.77668 3.75052 5.24735L9.68911 11.1885C10.3038 11.8006 11.1242 12.1401 12.0013 12.1401C12.8757 12.1401 13.6962 11.8006 14.3108 11.1885L20.2494 5.24735C19.6322 4.77668 18.8607 4.49378 18.0248 4.49378ZM18.0248 3.07666H5.97525C3.16927 3.07666 0.885376 5.36055 0.885376 8.16654V15.8335C0.885376 18.6421 3.16927 20.9234 5.97525 20.9234H18.0248C20.8307 20.9234 23.1146 18.6421 23.1146 15.8335V8.16649C23.1146 5.3605 20.8307 3.07666 18.0248 3.07666Z" fill="white" fill-opacity="0.75"/>
</svg>