<svg width="80" height="80" viewBox="0 0 80 80" fill="none" xmlns="http://www.w3.org/2000/svg">
<rect width="80" height="80" rx="26.6667" fill="url(#paint0_radial_212_54)"/>
<path d="M25.5145 59V53.3333C25.5145 53.3333 26.0701 53.0444 27.1812 52.4667C28.3367 51.8444 29.7812 51.0222 31.5145 50C33.2479 48.9333 35.0701 47.7333 36.9812 46.4C38.8923 45.0222 40.6479 43.5556 42.2479 42C43.8479 40.4 45.0701 38.7556 45.9145 37.0667C46.9367 35.0222 47.2479 33.2222 46.8479 31.6667C46.4923 30.1111 45.6701 28.9111 44.3812 28.0667C43.0923 27.1778 41.559 26.7333 39.7812 26.7333C37.3812 26.7333 35.4701 27.5333 34.0479 29.1333C32.6256 30.7333 32.1367 33.2 32.5812 36.5333L26.2479 35.6667C25.9367 32.6 26.359 29.9778 27.5145 27.8C28.7145 25.6222 30.4479 23.9556 32.7145 22.8C34.9812 21.6 37.5812 21 40.5145 21C42.9145 21 45.0701 21.4444 46.9812 22.3333C48.8923 23.2222 50.4256 24.4444 51.5812 26C52.7812 27.5556 53.4701 29.3333 53.6479 31.3333C53.8256 33.3333 53.359 35.4667 52.2479 37.7333C51.4034 39.4222 50.2256 41.0444 48.7145 42.6C47.2479 44.1111 45.6479 45.4889 43.9145 46.7333C42.2256 47.9778 40.559 49.0667 38.9145 50C37.3145 50.8889 35.9145 51.6222 34.7145 52.2C33.5145 52.7333 32.7145 53.0444 32.3145 53.1333H54.3145V59H25.5145Z" fill="white"/>
<defs>
<radialGradient id="paint0_radial_212_54" cx="0" cy="0" r="1" gradientUnits="userSpaceOnUse" gradientTransform="translate(40 98.7234) rotate(-83.998) scale(99.2676 110.448)">
<stop offset="0.156976" stop-color="#9E00D1"/>
<stop offset="1" stop-color="#4D31FE"/>
</radialGradient>
</defs>
</svg>
