<svg width="80" height="80" viewBox="0 0 80 80" fill="none" xmlns="http://www.w3.org/2000/svg">
<rect width="80" height="80" rx="26.6667" fill="url(#paint0_radial_212_59)"/>
<path d="M40.6122 59.6667C37.6344 59.6667 34.9677 59.1556 32.6122 58.1333C30.2566 57.1111 28.39 55.5778 27.0122 53.5333C25.6788 51.4444 25.0122 48.8667 25.0122 45.8L31.5455 44.8667C31.6344 47.7556 32.5233 49.9778 34.2122 51.5333C35.9455 53.0444 38.1233 53.8 40.7455 53.8C43.0122 53.8 44.8788 53.2 46.3455 52C47.8566 50.7556 48.6122 49.2 48.6122 47.3333C48.6122 45.8667 48.2344 44.7333 47.4788 43.9333C46.7233 43.0889 45.7677 42.4889 44.6122 42.1333C43.5011 41.7333 42.39 41.5333 41.2788 41.5333H36.8122V38H41.4122C43.2344 38 44.79 37.6222 46.0788 36.8667C47.4122 36.1111 48.0788 34.8667 48.0788 33.1333C48.0788 31.0889 47.3677 29.4667 45.9455 28.2667C44.5233 27.0667 42.6122 26.4667 40.2122 26.4667C38.3011 26.4667 36.7455 26.8667 35.5455 27.6667C34.3455 28.4667 33.4344 29.4444 32.8122 30.6C32.2344 31.7556 31.9233 32.8667 31.8788 33.9333L25.8122 32.9333C25.8122 32.2222 26.0344 31.2222 26.4788 29.9333C26.9233 28.6 27.6566 27.2444 28.6788 25.8667C29.7455 24.4444 31.19 23.2444 33.0122 22.2667C34.8788 21.2889 37.2122 20.8 40.0122 20.8C44.5011 20.8 47.99 21.7778 50.4788 23.7333C52.9677 25.6444 54.2122 28.2444 54.2122 31.5333C54.2122 33.7111 53.59 35.5778 52.3455 37.1333C51.1455 38.6889 49.3677 39.6222 47.0122 39.9333C49.3677 40.2444 51.2788 41.2222 52.7455 42.8667C54.2122 44.4667 54.9455 46.4444 54.9455 48.8C54.9455 51.0667 54.3233 53.0222 53.0788 54.6667C51.8788 56.2667 50.19 57.5111 48.0122 58.4C45.8344 59.2444 43.3677 59.6667 40.6122 59.6667Z" fill="white"/>
<defs>
<radialGradient id="paint0_radial_212_59" cx="0" cy="0" r="1" gradientUnits="userSpaceOnUse" gradientTransform="translate(40 98.7234) rotate(-83.998) scale(99.2676 110.448)">
<stop offset="0.156976" stop-color="#9E00D1"/>
<stop offset="1" stop-color="#4D31FE"/>
</radialGradient>
</defs>
</svg>
